<?xml version="1.0" encoding="UTF-8" standalone="no"?>
<!-- Created with Inkscape (http://www.inkscape.org/) -->

<svg
   version="1.1"
   id="svg9"
   xml:space="preserve"
   width="265.58768"
   height="52.913383"
   viewBox="0 0 265.58767 52.913384"
   xmlns="http://www.w3.org/2000/svg"
   xmlns:svg="http://www.w3.org/2000/svg"><defs
     id="defs13"><clipPath
       clipPathUnits="userSpaceOnUse"
       id="clipPath23"><path
         d="M 0,0 H 841.89 V 595.281 H 0 Z"
         id="path21" /></clipPath></defs><g
     id="g15"
     transform="matrix(1.3333333,0,0,-1.3333333,-544.77818,614.96705)"><g
       id="g17"><g
         id="g19"
         clip-path="url(#clipPath23)"><g
           id="g807"
           transform="translate(437.1523,437.7104)"><path
             d="M 0,0 C -0.101,0.603 -0.265,1.19 -0.509,1.731 -1.273,3.386 -2.344,4.779 -3.943,5.709 -6.432,7.16 -9.439,7.152 -11.9,5.656 c -1.117,-0.671 -2.033,-1.641 -2.621,-2.803 -0.203,-0.392 -0.362,-0.808 -0.498,-1.231 -0.648,-2.059 -0.623,-4.833 0.546,-6.714 0.378,-0.616 0.931,-1.141 1.608,-1.401 0.672,-0.261 1.475,-0.232 2.08,0.158 0.784,0.511 0.922,1.47 0.777,2.331 -0.183,1.099 -0.326,2.174 0.081,3.247 0.126,0.342 0.31,0.675 0.574,0.923 0.16,0.156 0.35,0.28 0.55,0.381 0.424,0.206 0.908,0.301 1.373,0.221 0.815,-0.13 1.483,-0.761 1.845,-1.505 0.359,-0.74 0.46,-1.579 0.499,-2.406 0.172,-3.595 -0.685,-7.315 -1.603,-10.767 -0.092,-0.356 -0.189,-0.711 -0.293,-1.06 -0.078,-0.273 -0.215,-0.622 -0.043,-0.886 0.08,-0.113 0.192,-0.194 0.32,-0.246 0.532,-0.214 0.971,0.113 1.321,0.469 2.111,2.125 3.463,4.853 4.383,7.67 0.345,1.046 0.644,2.113 0.839,3.2 C 0.111,-3.273 0.269,-1.571 0,0"
             style="fill:#009591;fill-opacity:1;fill-rule:nonzero;stroke:none"
             id="path809" /></g><g
           id="g811"
           transform="translate(452.2354,454.3115)"><path
             d="m 0,0 c 0,0.544 -0.478,0.9 -0.99,0.881 -0.521,-0.022 -1.005,-0.288 -1.484,-0.47 -9.262,-3.523 -19.716,-4.193 -29.481,-2.784 -1.67,0.24 -3.361,0.58 -5.04,0.84 -1.051,0.166 -2.09,0.403 -3.151,0.485 -0.901,0.064 -2.029,0.097 -2.759,-0.532 -0.966,-0.829 -0.896,-2.407 -0.349,-3.452 0.656,-1.245 1.805,-2.187 3.001,-2.895 1.16,-0.695 2.547,-1.432 3.93,-1.344 3.733,0.238 7.452,0.595 11.164,1.084 6.326,0.817 12.957,1.59 18.897,4.049 1.943,0.8 3.859,1.8 5.525,3.096 C -0.437,-0.814 0,-0.437 0,0"
             style="fill:#009591;fill-opacity:1;fill-rule:nonzero;stroke:none"
             id="path813" /></g><g
           id="g815"
           transform="translate(425.6611,457.4893)"><path
             d="m 0,0 c 0,-2.015 1.633,-3.645 3.644,-3.645 2.011,0 3.644,1.63 3.644,3.645 0,0.3 -0.073,0.602 -0.197,0.874 C 6.782,1.535 6.427,1.858 6.462,2.652 6.508,3.72 5.136,3.736 4.396,3.736 3.591,3.736 2.741,3.624 2.01,3.26 1.429,2.966 0.93,2.517 0.577,1.972 0.214,1.412 0.014,0.751 0,0.082 V 0"
             style="fill:#ed1651;fill-opacity:1;fill-rule:nonzero;stroke:none"
             id="path817" /></g><g
           id="g819"
           transform="translate(476.2393,440.9717)"><path
             d="M 0,0 V -15.877 H -3.97 V 10.727 H 0 V 2.641 H 3.821 V 0 Z m -14.167,5.23 c -1.619,0 -2.91,-2.468 -2.883,-6.261 -0.027,-3.616 1.237,-6.024 2.853,-6.024 1.644,0 2.882,2.351 2.882,6.024 0,3.966 -1.176,6.261 -2.852,6.261 m -2.058,2.703 v 2.794 h 4.113 V 7.933 H -6.61 V 5.29 h -2.883 c 1.293,-1.557 2.117,-3.765 2.145,-6.321 -0.028,-4.969 -2.821,-8.67 -6.819,-8.67 -4.115,-0.032 -6.85,3.701 -6.85,8.67 0,2.556 0.824,4.764 2.117,6.321 h -2.704 v 2.643 z"
             style="fill:#231f20;fill-opacity:1;fill-rule:nonzero;stroke:none"
             id="path821" /></g><g
           id="g823"
           transform="translate(486.4971,435.3862)"><path
             d="m 0,0 h 6.673 c 1.791,0 3.145,-0.088 4.82,0.793 v 15.519 h 3.97 V 8.226 h 3.822 V 5.585 h -3.822 v -15.877 h -3.97 v 8.435 C 10.112,-2.468 8.259,-2.65 6.584,-2.65 h -8.79 c -1.732,0 -3.056,1.679 -3.056,3.648 v 14.138 h 3.968 V 1.088 C -1.294,0.41 -0.852,0 0,0"
             style="fill:#231f20;fill-opacity:1;fill-rule:nonzero;stroke:none"
             id="path825" /></g><g
           id="g827"
           transform="translate(513.7129,432.9468)"><path
             d="M 0,0 V -4.443 C 0,-5.203 0.469,-5.5 1.148,-5.5 H 9.999 V 0 Z M 13.966,2.645 V -8.143 H -1.265 c -1.468,0 -2.702,1.644 -2.702,3.644 v 7.144 z m -4.56,5.258 c 0.473,1.503 0.62,3.411 0.62,5.325 v 2.291 H -3.938 v 2.645 h 17.932 v -4.849 c 0,-2.001 -0.265,-3.937 -0.732,-5.412 h 3.642 V 5.263 H -6.905 v 2.64 z"
             style="fill:#231f20;fill-opacity:1;fill-rule:nonzero;stroke:none"
             id="path829" /></g><g
           id="g831"
           transform="translate(547.4307,438.3262)"><path
             d="m 0,0 h -5.997 v -1.619 c 0.94,0.349 1.938,0.56 2.997,0.56 1.031,0 2.059,-0.211 3,-0.588 z m -2.972,11.459 c -1.969,0 -3.41,-2.114 -3.378,-4.409 -0.032,-2.291 1.442,-4.404 3.378,-4.404 1.884,0 3.355,2.052 3.382,4.404 -0.027,2.236 -1.557,4.409 -3.382,4.409 M -3,-3.706 c -1.619,0 -3.499,-1.38 -3.468,-3.91 -0.031,-2.411 1.732,-3.852 3.44,-3.852 1.642,0 3.467,1.385 3.467,3.852 0,2.352 -1.764,3.91 -3.439,3.91 M -2.972,14.11 C 1.351,14.11 4.38,10.638 4.38,7.05 4.38,5.408 3.822,3.849 2.822,2.646 H 8.906 V 0 H 3.998 V -5.292 H 3.937 C 4.232,-6 4.408,-6.793 4.408,-7.616 c 0,-4.026 -3.764,-6.494 -7.408,-6.494 -3.967,0 -7.436,2.524 -7.436,6.494 0,0.823 0.176,1.616 0.471,2.324 H -9.994 V 0 h -4.911 v 2.646 h 6.143 c -0.998,1.203 -1.555,2.762 -1.555,4.404 0,3.471 2.94,7.06 7.345,7.06"
             style="fill:#231f20;fill-opacity:1;fill-rule:nonzero;stroke:none"
             id="path833" /></g><g
           id="g835"
           transform="translate(574.002,431.5601)"><path
             d="m 0,0 c 0.971,2.18 1.176,4.853 1.176,7.704 v 8.319 h -13.967 v 2.645 H 5.143 V 7.737 C 5.143,4.531 4.702,1.914 3.82,0 H 8.051 V -2.641 H -15.757 V 0 Z"
             style="fill:#231f20;fill-opacity:1;fill-rule:nonzero;stroke:none"
             id="path837" /></g><g
           id="g839"
           transform="translate(590.9004,429.5073)"><path
             d="M 0,0 V -0.826 C 0,-1.647 0.499,-2.061 1.146,-2.061 H 9.992 V 0 Z m 0,2.646 h 9.992 v 2.351 h 3.975 V -4.704 H -0.941 c -1.586,0 -3.026,1.615 -3.026,3.612 V 4.997 H 0 Z m 14.256,8.142 H -0.91 c -1.617,0 -3.057,1.675 -3.057,3.583 V 17.66 H 9.992 v 1.591 H -3.967 v 2.645 h 17.934 v -4.379 c 0,-1.322 -0.916,-2.497 -1.944,-2.497 L 0,15.02 V 14.432 C 0,13.844 0.439,13.428 1.205,13.428 H 14.256 Z M -6.938,9.113 H 16.874 V 6.467 H 6.967 V 3.821 H 2.969 v 2.646 h -9.907 z"
             style="fill:#231f20;fill-opacity:1;fill-rule:nonzero;stroke:none"
             id="path841" /></g></g></g></g></svg>
