<svg width="306" height="62" viewBox="0 0 306 62" fill="none" xmlns="http://www.w3.org/2000/svg">
<g clip-path="url(#clip0_484_911)">
<path d="M43.8887 36.1744C43.752 35.2547 43.4881 34.3586 43.1045 33.5117C42.0426 30.9543 40.1974 28.7993 37.8338 27.3565C35.9782 26.2509 33.8558 25.6734 31.6958 25.6862C29.5359 25.6991 27.4205 26.3019 25.5782 27.4294C23.8643 28.4712 22.4724 29.9673 21.5568 31.7517C21.2563 32.3617 21.0003 32.9925 20.7908 33.6393C19.806 36.8127 19.8789 41.0712 21.6297 43.9709C22.2058 44.931 23.0708 45.6843 24.1009 46.123C24.6205 46.3366 25.1816 46.4301 25.7423 46.3966C26.3107 46.3636 26.8634 46.1981 27.3563 45.9133C27.8864 45.5001 28.2826 44.9395 28.4951 44.3019C28.7076 43.6643 28.727 42.9781 28.5509 42.3296C28.1428 40.6832 28.1838 38.9576 28.6694 37.3324C28.8659 36.7974 29.1771 36.3118 29.5813 35.9099C29.9769 35.5508 30.4466 35.283 30.9572 35.1254C31.4677 34.9679 32.0066 34.9244 32.5358 34.998C33.1553 35.1361 33.7338 35.4176 34.2247 35.8199C34.7157 36.2221 35.1054 36.734 35.3626 37.3142C35.8495 38.4933 36.0914 39.7591 36.0739 41.0347C36.3384 46.5607 35.0253 52.2873 33.621 57.5945L33.165 59.2267C33.0465 59.6553 32.8276 60.1386 33.1012 60.5854C33.2238 60.7612 33.3949 60.8974 33.5936 60.9775C33.9619 61.0913 34.356 61.0913 34.7243 60.9775C35.0936 60.8528 35.4131 60.6132 35.6362 60.2936C38.7841 56.916 41.1008 52.8507 42.4024 48.4209C42.942 46.8112 43.3686 45.1659 43.679 43.4968C44.18 41.0975 44.2663 38.6301 43.9343 36.2017" fill="#0E7C74"/>
<path d="M67.0597 10.6327C67.051 10.443 67.0045 10.257 66.9229 10.0855C66.8429 9.91465 66.7279 9.76243 66.5855 9.63871C66.4482 9.50861 66.2829 9.41189 66.1022 9.35603C65.9232 9.29618 65.7343 9.27142 65.5459 9.28308C64.7529 9.40211 63.9836 9.64521 63.2662 10.0035C48.9953 15.4748 32.9827 16.4505 17.964 14.2893C15.3925 13.9154 12.8027 13.3774 10.2221 12.9944C8.60808 12.7391 7.01228 12.3835 5.38914 12.2558C3.99396 12.1555 2.26138 12.1008 1.14889 13.0674C-0.328359 14.344 -0.237171 16.7696 0.610879 18.3654C1.71342 20.2346 3.30576 21.7671 5.21588 22.7972C7.03964 23.8641 9.12785 24.9948 11.2617 24.858C16.9883 24.4933 22.7027 23.9401 28.405 23.1984C38.1257 21.9765 48.3296 20.7545 57.4484 16.9794C60.4738 15.795 63.3262 14.2094 65.9289 12.2649C66.394 11.9184 67.0597 11.353 67.0597 10.66" fill="#0E7C74"/>
<path d="M26.2349 5.74481C26.2349 7.22974 26.8248 8.65386 27.8748 9.70386C28.9248 10.7539 30.3489 11.3438 31.8338 11.3438C33.3187 11.3438 34.7429 10.7539 35.7929 9.70386C36.8429 8.65386 37.4328 7.22974 37.4328 5.74481C37.4285 5.28465 37.3259 4.83072 37.1318 4.41346C36.6577 3.39215 36.1105 2.89974 36.22 1.67782C36.2382 -4.5208e-05 34.1318 -4.52409e-05 32.9828 -4.52409e-05C31.7267 -0.0331708 30.4795 0.219388 29.3353 0.738579C28.4196 1.1981 27.6478 1.90042 27.1043 2.76883C26.5607 3.63724 26.2663 4.63833 26.2531 5.66274V5.7904" fill="#C62638"/>
<path d="M103.954 31.1315V55.5699H97.8448V14.6538H103.954V27.0828H109.827V31.1315H103.954ZM82.1695 23.1161C79.6892 23.1161 77.7104 26.8821 77.7469 32.7455C77.7469 38.2989 79.6254 42.0102 82.1239 42.0102C84.6225 42.0102 86.5557 38.3627 86.5557 32.7455C86.5557 26.6359 84.741 23.1161 82.1695 23.1161ZM79.0053 18.9488V14.6538H85.3338V18.9488H93.8142V23.0158H89.3643C91.5387 25.7895 92.703 29.2213 92.6653 32.7455C92.6653 40.378 88.3247 46.0681 82.1786 46.0681C75.7955 46.1228 71.5917 40.378 71.5917 32.7455C71.5245 29.2182 72.6886 25.7777 74.8836 23.0158H70.7437V18.9488H79.0053Z" fill="#221D1E"/>
<path d="M119.666 39.7397H129.916C132.651 39.7397 134.749 39.8856 137.32 38.5269V14.6538H143.421V27.0828H149.293V31.1315H143.421V55.5699H137.32V42.5939C134.916 43.498 132.355 43.9134 129.788 43.8158H116.31C113.648 43.8158 111.596 41.2443 111.596 38.2168V16.4593H117.706V38.0709C117.706 39.1196 118.371 39.7397 119.684 39.7397" fill="#221D1E"/>
<path d="M161.512 43.4967V50.3267C161.512 51.4939 162.233 51.9589 163.263 51.9589H176.905V43.4693L161.512 43.4967ZM182.96 39.4297V56.0259H159.579C157.318 56.0259 155.421 53.4818 155.421 50.3631V39.4206L182.96 39.4297ZM175.993 31.3413C176.694 28.6644 177.001 25.8998 176.905 23.1344V19.6236H155.476V15.5566H183.014V23.0158C183.05 25.8315 182.669 28.637 181.884 31.3413H187.51V35.4083H150.898V31.3413H175.993Z" fill="#221D1E"/>
<path d="M213.307 35.2259H204.088V37.7336C205.558 37.1689 207.119 36.8784 208.693 36.8764C210.276 36.8763 211.843 37.1861 213.307 37.7883V35.2259ZM208.748 17.5992C205.72 17.5992 203.504 20.8455 203.55 24.3745C203.596 27.9035 205.766 31.1315 208.748 31.1315C211.73 31.1315 213.9 27.9582 213.946 24.3471C213.891 20.9732 211.556 17.5992 208.739 17.5992H208.748ZM208.748 40.9251C208.001 40.9657 207.269 41.1542 206.596 41.4795C205.922 41.8048 205.32 42.2606 204.824 42.8204C204.328 43.3801 203.947 44.0328 203.705 44.7406C203.463 45.4484 203.364 46.1972 203.413 46.9436C203.362 47.6754 203.458 48.4102 203.696 49.1042C203.934 49.7982 204.309 50.4372 204.799 50.9832C205.287 51.53 205.88 51.9733 206.543 52.2866C207.206 52.5999 207.924 52.7768 208.657 52.807C209.399 52.7781 210.129 52.5981 210.8 52.2781C211.47 51.9656 212.069 51.5186 212.559 50.965C213.057 50.4149 213.439 49.7709 213.683 49.0708C213.927 48.3707 214.029 47.6288 213.982 46.8888C213.982 43.296 211.246 40.9069 208.702 40.9069L208.748 40.9251ZM208.748 13.5231C211.681 13.4813 214.512 14.5967 216.629 16.6279C218.745 18.659 219.976 21.4422 220.055 24.3745C220.063 26.8352 219.219 29.2228 217.666 31.1315H227.058V35.1985H219.526V43.4055H219.435C219.91 44.5373 220.155 45.7525 220.155 46.98C220.155 53.1626 214.374 57.0107 208.784 57.0107C202.675 57.0107 197.349 53.117 197.349 46.98C197.357 45.7523 197.605 44.538 198.079 43.4055V35.1985H190.492V31.1315H199.921C198.353 29.2198 197.505 26.8194 197.523 24.3471C197.608 21.4356 198.83 18.673 200.926 16.6503C203.022 14.6276 205.826 13.5052 208.739 13.5231H208.748Z" fill="#221D1E"/>
<path d="M254.123 45.5942C255.609 42.2476 255.947 38.1259 255.947 33.7397V20.9734H234.481V16.9155H262.029V33.7397C262.029 38.6639 261.354 42.6944 259.995 45.5942H266.497V49.6977H229.903V45.5942H254.123Z" fill="#221D1E"/>
<path d="M280.084 48.7858V50.0533C280.058 50.2959 280.083 50.5413 280.157 50.7737C280.238 51.0066 280.365 51.2206 280.531 51.4029C280.698 51.5838 280.904 51.7241 281.133 51.8133C281.358 51.9064 281.601 51.95 281.844 51.9409H295.449V48.7858H280.084ZM280.084 44.7188H295.449V41.0713H301.532V56.0261H278.644C276.2 56.0261 273.984 53.5367 273.984 50.4546V41.0987H280.084V44.7188ZM301.969 32.1987H278.689C276.2 32.1987 273.975 29.6181 273.975 26.6818V21.6117H295.449V19.1497H273.984V15.0918H301.523V21.8215C301.523 23.855 300.127 25.6696 298.541 25.6696H280.075V26.5815C280.075 27.4934 280.75 28.1226 281.954 28.1226H302.015L301.969 32.1987ZM269.415 34.7702H305.991V38.8372H290.79V42.9133H284.644V38.8372H269.424L269.415 34.7702Z" fill="#221D1E"/>
</g>
<defs>
<clipPath id="clip0_484_911">
<rect width="306" height="61.0049" fill="white"/>
</clipPath>
</defs>
</svg>
