<svg width="1489" height="297" viewBox="0 0 1489 297" fill="none" xmlns="http://www.w3.org/2000/svg">
<g clip-path="url(#clip0_324_162)">
<path d="M213.565 176.015C212.877 171.536 211.597 167.168 209.76 163.026C204.563 150.593 195.577 140.12 184.084 133.101C175.054 127.733 164.733 124.931 154.231 124.996C143.729 125.06 133.443 127.99 124.48 133.469C116.136 138.526 109.358 145.803 104.902 154.489C103.431 157.45 102.19 160.518 101.189 163.669C96.3744 179.09 96.6036 199.836 105.269 213.926C108.049 218.613 112.26 222.282 117.282 224.391C119.796 225.446 122.52 225.904 125.24 225.729C127.961 225.554 130.604 224.75 132.962 223.381C135.55 221.378 137.484 218.652 138.521 215.546C139.558 212.441 139.65 209.098 138.785 205.94C136.794 197.926 137 189.522 139.381 181.615C140.286 179.026 141.759 176.674 143.691 174.73C144.91 173.572 146.302 172.612 147.817 171.884C150.971 170.282 154.54 169.689 158.042 170.186C161.056 170.861 163.871 172.234 166.26 174.195C168.649 176.156 170.545 178.65 171.796 181.477C174.239 187.162 175.518 193.28 175.556 199.469C176.84 226.364 170.421 254.224 163.589 280.064L161.389 288.004C160.793 290.069 159.738 292.594 161.068 294.613C161.653 295.469 162.484 296.125 163.452 296.495C165.265 296.994 167.188 296.922 168.96 296.29C170.731 295.658 172.266 294.496 173.355 292.961C188.637 276.653 199.923 257.012 206.321 235.59C208.967 227.762 211.051 219.756 212.556 211.631C214.99 199.916 215.409 187.871 213.794 176.015" fill="#008077"/>
<path d="M326.309 51.726C326.275 50.8031 326.054 49.8966 325.661 49.0613C325.267 48.2259 324.708 47.4791 324.019 46.8658C323.329 46.2524 322.522 45.7853 321.647 45.4926C320.772 45.1999 319.847 45.0877 318.927 45.1627C315.067 45.7274 311.321 46.9049 307.832 48.6509C238.416 75.0417 160.472 80.0445 87.4342 69.4882C74.9174 67.6982 62.3089 65.1739 49.7462 63.2003C41.9059 61.9611 34.1116 60.217 26.2255 59.6203C19.4398 59.1154 11.0036 58.8401 5.59335 63.5675C-1.60498 69.7636 -1.14649 81.5591 2.97994 89.3616C8.32907 98.5147 16.0839 106.024 25.4002 111.071C34.0657 116.257 44.4277 121.765 54.7896 121.122C82.6659 119.317 110.481 116.624 138.235 113.045C185.506 106.894 235.069 100.974 279.68 82.6147C294.398 76.8466 308.277 69.1283 320.944 59.6662C323.191 57.968 326.446 55.0765 326.446 51.8637" fill="#008077"/>
<path d="M127.644 27.9513C127.932 34.9943 130.93 41.6528 136.01 46.5339C141.09 51.4151 147.859 54.1407 154.901 54.1407C161.943 54.1407 168.711 51.4151 173.792 46.5339C178.872 41.6528 181.87 34.9943 182.158 27.9513C182.131 25.6999 181.631 23.4794 180.691 21.4339C178.353 16.477 175.694 14.0904 176.106 8.12374C176.335 -3.96986e-05 166.065 -3.99482e-05 160.472 -3.99482e-05C154.33 -0.199397 148.226 1.02586 142.636 3.57993C138.285 5.78763 134.598 9.1141 131.953 13.2183C129.205 17.493 127.711 22.4549 127.644 27.5382V28.1349" fill="#D11E37"/>
<path d="M505.763 151.461V270.38H476.099V71.2783H505.763V131.771H534.327V151.461H505.763ZM399.851 112.448C387.747 112.448 378.119 130.807 378.302 159.309C378.302 186.342 387.472 204.38 399.622 204.38C411.772 204.38 421.171 186.801 421.171 159.309C421.171 129.568 412.368 112.448 399.851 112.448ZM384.446 92.1615V71.2783H415.211V92.1615H456.475V111.989H434.926C445.509 125.469 451.171 142.165 450.973 159.309C450.973 196.44 429.883 224.161 399.989 224.161C369.087 224.391 348.454 196.44 348.454 159.309C348.123 142.152 353.782 125.417 364.456 111.989H344.236V92.1615H384.446Z" fill="white"/>
<path d="M582.285 193.365H632.169C645.557 193.365 655.69 194.053 668.207 187.444V71.2783H697.871V131.771H726.435V151.461H697.871V270.38H668.207V207.225C656.496 211.63 644.028 213.658 631.527 213.192H565.963C552.987 213.192 543.038 200.662 543.038 185.929V80.0906H572.748V185.241C572.748 190.335 576.004 193.365 582.377 193.365" fill="white"/>
<path d="M785.902 211.631V244.861C785.902 250.552 789.432 252.801 794.43 252.801H860.59V211.494L785.902 211.631ZM890.255 191.85V272.583H776.457C765.453 272.583 756.237 260.236 756.237 245.044V191.85H890.255ZM856.189 152.47C859.635 139.482 861.179 126.063 860.774 112.631V95.4657H756.512V75.6841H890.53V111.989C890.71 125.681 888.856 139.324 885.028 152.47H912.4V172.252H734.275V152.47H856.189Z" fill="white"/>
<path d="M1037.93 171.38H993.094V183.588C1000.25 180.838 1007.85 179.423 1015.51 179.412C1023.21 179.478 1030.83 181.036 1037.93 184.001V171.38ZM1015.7 85.598C1000.98 85.598 990.206 101.433 990.435 118.598C990.664 135.764 1001.21 151.46 1015.7 151.46C1030.19 151.46 1040.78 136.039 1041.01 118.46C1040.78 101.891 1029.36 85.598 1015.7 85.598ZM1015.7 199.102C1012.07 199.3 1008.51 200.217 1005.24 201.8C1001.96 203.383 999.033 205.6 996.62 208.323C994.207 211.046 992.357 214.221 991.177 217.665C989.997 221.108 989.511 224.751 989.747 228.384C989.505 231.952 989.978 235.532 991.137 238.915C992.296 242.297 994.119 245.414 996.498 248.082C998.877 250.749 1001.76 252.915 1004.99 254.45C1008.22 255.986 1011.72 256.861 1015.29 257.024C1018.89 256.872 1022.42 256.003 1025.68 254.467C1028.94 252.932 1031.86 250.76 1034.27 248.081C1036.69 245.401 1038.54 242.267 1039.73 238.861C1040.92 235.455 1041.41 231.846 1041.19 228.246C1041.19 210.759 1028.03 199.102 1015.51 199.102H1015.7ZM1015.7 65.7705C1029.97 65.536 1043.76 70.9553 1054.07 80.849C1064.37 90.7426 1070.36 104.31 1070.72 118.598C1070.76 130.566 1066.66 142.179 1059.12 151.46H1104.65V171.242H1067.97V211.127H1067.55C1069.85 216.638 1071.03 222.55 1071.04 228.522C1071.04 258.63 1042.93 277.127 1015.7 277.127C985.987 277.127 960.083 258.171 960.083 228.522C960.101 222.547 961.301 216.635 963.613 211.127V171.38H926.934V151.46H972.783C965.185 142.151 961.067 130.481 961.137 118.46C961.556 104.285 967.499 90.8354 977.695 80.989C987.891 71.1426 1001.53 65.6804 1015.7 65.7705Z" fill="white"/>
<path d="M1236.55 222.004C1243.8 205.711 1245.31 185.654 1245.31 164.357V102.121H1140.96V82.2935H1275.02V164.128C1275.02 188.086 1271.72 207.684 1265.12 222.004H1296.75V241.786H1118.72V222.004H1236.55Z" fill="white"/>
<path d="M1362.87 237.379V243.53C1362.73 244.717 1362.86 245.919 1363.23 247.053C1363.61 248.187 1364.23 249.226 1365.04 250.098C1365.86 250.971 1366.85 251.656 1367.96 252.107C1369.06 252.558 1370.25 252.763 1371.44 252.709H1437.6V237.379H1362.87ZM1362.87 217.598H1437.6V199.973H1467.18V272.582H1355.85C1343.98 272.582 1333.2 260.466 1333.2 245.503V199.973H1362.87V217.598ZM1469.42 156.646H1356.08C1343.98 156.646 1333.16 144.117 1333.16 129.797V105.15H1437.56V93.3085H1333.2V73.4351H1467.18V106.16C1467.18 116.073 1460.39 124.886 1452.69 124.886H1362.82V129.475C1362.82 133.836 1366.12 136.957 1371.99 136.957H1469.51L1469.42 156.646ZM1311.01 169.176H1489V188.958H1414.95V208.786H1385.06V188.958H1311.01V169.176Z" fill="white"/>
</g>
<defs>
<clipPath id="clip0_324_162">
<rect width="1489" height="297" fill="white"/>
</clipPath>
</defs>
</svg>
