<svg xmlns="http://www.w3.org/2000/svg" viewBox="0 0 440 300.09"><defs><style>.cls-1{fill:#fff;}.cls-2{fill:#201d1e;}.cls-3{fill:#e11d38;}.cls-4{fill:none;stroke:#201d1e;stroke-width:0.73px;}</style></defs><title>Asset 1</title><g id="Layer_2" data-name="Layer 2"><g id="Layer_1-2" data-name="Layer 1"><path class="cls-1" d="M207,90.28h2V58.6a11.26,11.26,0,0,1,9.15-11.22A11.08,11.08,0,0,1,231,58.44V90.28h31v35H370A80.87,80.87,0,0,0,392,147.17v50.2A81.09,81.09,0,0,0,370,219.28H231v21.59A11.1,11.1,0,0,1,218.15,252,11.27,11.27,0,0,1,209,240.74V219.28H70a80.56,80.56,0,0,0-22-21.9V147.17a81.19,81.19,0,0,0,22-21.89H178v-35"/><path class="cls-2" d="M164,43.28H125v35H33V80.5A30.78,30.78,0,0,1,2.22,111.28H0v123H2.22A30.78,30.78,0,0,1,33,265.06v2.22H167.11a58.25,58.25,0,0,0,104.8,0H406v-2a30.91,30.91,0,0,1,30.76-31H439l1-1.93V111.28h-2A30.91,30.91,0,0,1,407,80.5V78.28H315v-35H276.46a58.48,58.48,0,0,0-112.94,0m.92,4H166l.37-1.53a54.59,54.59,0,0,1,106.19,0l.39,1.53h37v35h92.3A34.82,34.82,0,0,0,435,115V230.58a34.79,34.79,0,0,0-32.7,32.7H269.47l-.54,1.15a54.52,54.52,0,0,1-98.84,0l-.55-1.15H36.7A34.81,34.81,0,0,0,4,230.58V115A34.82,34.82,0,0,0,36.7,82.28H129v-35Z"/><path class="cls-2" d="M205,59.28v27H174v35H67.89l-.59.9a77,77,0,0,1-22.37,22.28L44,145v54.47l.93.6a77,77,0,0,1,22.38,22.28l.61.89H205v17.6a15,15,0,1,0,30,0v-17.6H372.13l.59-.89a77.38,77.38,0,0,1,22.37-22.29l.91-.59V145.06l-.91-.6a76.75,76.75,0,0,1-22.34-22.28l-.6-.9H266v-35H235V58.89a15.23,15.23,0,1,0-30.45,0m2.88,31.39H209V58.6a11.26,11.26,0,0,1,9.15-11.22A11.08,11.08,0,0,1,231,58.44V90.28h31v35H370A80.87,80.87,0,0,0,392,147.17v50.2A81.09,81.09,0,0,0,370,219.28H231v21.59A11.1,11.1,0,0,1,218.15,252,11.27,11.27,0,0,1,209,240.74V220.28H70a80.56,80.56,0,0,0-22-22v-51a81.49,81.49,0,0,0,22-22.05H178v-35Z"/><polyline class="cls-1" points="174 121.28 174 86.28 175.01 86.28 130 47.73 130 82.28 113.72 82.28 159.4 121.56"/><polyline class="cls-1" points="278.3 224 323.95 263.28 380.29 263.28 334.58 224"/><path class="cls-1" d="M435,230.28V212.06l-39-33.48v21.48l-.9.59a76.23,76.23,0,0,0-14.68,12.49l31.93,27.45A34.32,34.32,0,0,1,435,230.28"/><polyline class="cls-1" points="37 263.28 37.51 263.28 37.18 263"/><path class="cls-1" d="M435.45,115a34.79,34.79,0,0,1-32.69-32.68H343.87l91.58,79"/><path class="cls-1" d="M235.48,241.88a15.24,15.24,0,0,1-17,15.13A15.53,15.53,0,0,1,205,241.44V224.28H164.15l78.13,67.2A54.69,54.69,0,0,0,269,266.13l-33.48-28.86"/><path class="cls-1" d="M67.66,224l-.59-.91A76.62,76.62,0,0,0,44.9,200.75l-.9-.59V170.6L5,136.73V185l90.35,78.3H150.8L105.55,224"/><path class="cls-1" d="M67,122.19l.59-.91h33.53l-45.29-39H37.39a34.4,34.4,0,0,1-10.78,23.09l32,27.49A77,77,0,0,0,67,122.19"/><path class="cls-3" d="M344,82.28H310v-35H274.1l-.38-1.53A54.09,54.09,0,0,0,199.66,8.52L330.34,121.28h42l.6.9a76.47,76.47,0,0,0,22.16,22.27l.91.6v32.86l39,33.66V161.28"/><polyline class="cls-3" points="159.4 121.58 113.72 82.28 55.78 82.28 101.39 121.58"/><polyline class="cls-3" points="235 224.28 235 236.99 268.48 265.84 269.18 264.43 269.72 263.28 323.74 263.28 278.07 224"/><path class="cls-3" d="M105.8,224l45.59,39.28H170l.54,1.15A54.77,54.77,0,0,0,220,295.9a54.14,54.14,0,0,0,22-4.71L163.89,224"/><path class="cls-3" d="M44.29,145.38l.91-.58A78.33,78.33,0,0,0,59,133.23l-32.2-27.7A34.65,34.65,0,0,1,5,115v21.63l39.29,33.87"/><path class="cls-3" d="M4.52,230.6A34.78,34.78,0,0,1,37.18,263l.33.27h58L4.52,185"/><path class="cls-3" d="M205,86.28V62L171.84,33.42a56,56,0,0,0-4.56,12.34l-.38,1.52H130v.35l45.3,39"/><path class="cls-1" d="M198.63,8.52a54.29,54.29,0,0,0-26.84,25L205,62.08V59.25c0-8.1,6.22-15.09,14.3-15.45a15,15,0,0,1,15.7,15V86.28h31v35h64"/><path class="cls-3" d="M372.9,223.37l-.59.91H334.84l45.39,39h22.32a34.42,34.42,0,0,1,9.81-22.15l-31.94-27.45a76.67,76.67,0,0,0-7.52,9.69"/><polyline class="cls-2" points="182 99.28 201 99.28 201 104.28 195 104.28 195 125.28 188 125.28 188 104.28 182 104.28"/><rect class="cls-2" x="199" y="119.28" width="6" height="6"/><path class="cls-2" d="M227,125.28h-2.69L223,122.9a7.72,7.72,0,0,1-5.65,2.5c-6.74,0-9.5-5.3-9.5-12.76,0-6.86,2.11-14.08,10.05-14.08,6.41,0,9.27,4,9.27,9.72h-6.32c-.18-3-.39-4.85-2.79-4.85-2.73,0-3.12,3.81-3.12,8.53,0,5.22.25,8.46,3.26,8.46,2.18,0,3.11-2.52,3.11-4.14H218v-4h9"/><rect class="cls-2" x="231" y="119.28" width="6" height="6"/><rect class="cls-2" x="240" y="99.28" width="7" height="26"/><rect class="cls-2" x="251" y="119.28" width="6" height="6"/><polyline class="cls-2" points="70 142.28 109 142.28 109 154.28 86 154.28 86 167.28 102 167.28 102 180.28 86 180.28 86 206.28 70 206.28"/><path class="cls-2" d="M130,154.28h2.39c5.32,0,10.38.52,10.38,7.09,0,5.06-3.91,6.91-9.94,6.91H130m-17,38h17v-28h5.45l8.09,28h15l-10.71-31.09a15.83,15.83,0,0,0,10.71-14.73c0-12.59-9.36-18.18-21.48-18.18H113Z"/><path class="cls-2" d="M165,161.28h15v45H165Zm0-19h15v13H165Z"/><path class="cls-2" d="M203,153.28h1.69c10.88,0,12,11.86,12,19.34,0,8.6,0,22.66-11.5,22.66H203m-16,11h19.51c19.59,0,27.22-14.75,27.22-33,0-18.77-9.34-31-29.21-31H187Z"/><path class="cls-2" d="M258,156.28h.28l4.66,26H253m-18.8,24h13.33l2.81-13h14.92l2.52,13h16.31l-13.67-64H249.2Z"/><polyline class="cls-2" points="295.83 181.39 279.83 142.28 296.74 142.28 305.18 167.45 315.34 142.28 329.7 142.28 312 180.49 312 206.28 296 206.28"/><path class="cls-2" d="M341.4,186.23c2.36,5.43,4.88,9.24,11.12,9.24,3.72,0,6.7-2.34,6.7-5.43,0-13.11-28.57-5.89-28.57-30.76,0-9.67,9.67-18.27,20.78-18.27,10.86,0,19,6.16,21.8,14.21l-12.93,5.43c-1.7-3.8-4.17-7.15-8.87-7.15-2.79,0-5.6,1.72-5.6,5.43,0,9.12,29.12,7,29.12,27.21C375,199.36,364.1,208,351.43,208c-10.93,0-19.7-5.79-23.5-16.29"/><polyline class="cls-2" points="334 131.28 340 131.28 340 136.45 336.25 143.28 332.84 143.28 335.8 137.28 334 137.28"/><polyline class="cls-2" points="422 249.28 420 249.28 420 250.28 425 250.28 425 250.28 423 250.28 423 257.28 422 257.28"/><polygon class="cls-4" points="422.5 250.78 419.5 250.78 419.5 249.78 425.5 249.78 425.5 250.78 423.5 250.78 423.5 257.78 422.5 257.78 422.5 250.78"/><polyline class="cls-2" points="432.73 253.55 432.6 250.28 432.64 250.28 431.64 253.35 430.22 257.28 429.53 257.28 428.3 253.73 427.42 250.77 427.42 250.77 427.27 254.13 427.06 258.28 426.12 258.28 426.67 250.28 427.9 249.28 429.21 253.46 429.97 256.28 430 256.28 430.81 253.46 432.14 249.28 433.38 249.28 433.89 257.28 433 257.28"/><polygon class="cls-4" points="432.72 254.25 432.58 250.78 432.47 250.78 431.61 253.42 430.39 256.78 429.53 256.78 428.3 253.73 427.42 250.77 427.42 250.77 427.27 254.13 427.06 257.78 426.12 257.78 426.67 249.78 427.98 249.78 429.24 253.32 429.97 255.78 430 255.78 430.78 253.32 432.06 249.78 433.38 249.78 433.89 257.78 432.91 257.78 432.72 254.25"/></g></g></svg>