<?xml version="1.0" encoding="utf-8"?>
<!-- Generator: Adobe Illustrator 19.2.1, SVG Export Plug-In . SVG Version: 6.00 Build 0)  -->
<svg version="1.1" id="layer" xmlns="http://www.w3.org/2000/svg" xmlns:xlink="http://www.w3.org/1999/xlink" x="0px" y="0px"
	 viewBox="0 0 652 652" style="enable-background:new 0 0 652 652;" xml:space="preserve">
<style type="text/css">
	.st0{fill:#FFFFFF;}
	.st1{fill:#D42E30;}
</style>
<path class="st0" d="M303.1,227.7h3.3v-53.1c0-10.3,8.4-18.7,18.7-18.7c10.3,0,18.7,8.4,18.7,18.7v53.1h52.3v58.1h179.6
	c9.8,14.5,22.1,26.8,36.7,36.6v84c-14.5,9.8-26.9,22.1-36.7,36.7H343.9v36c0,10.3-8.4,18.7-18.7,18.7c-10.3,0-18.7-8.4-18.7-18.7
	v-36H74.5c-9.8-14.5-22.1-26.9-36.7-36.7v-84c14.5-9.8,26.8-22.1,36.6-36.6h179.6v-58.1H303.1z"/>
<path d="M230.9,148.7h-63.2V207H13.6v3.3c0,28.3-23,51.4-51.4,51.4h-3.3v205.7h3.3c28.3,0,51.4,23,51.4,51.4v3.3h224
	c16.4,33.1,50.5,54.4,87.5,54.4c37,0,71.1-21.3,87.5-54.4h224v-3.3c0-28.3,23-51.4,51.4-51.4h3.3l0-3.3V261.7H688
	c-28.3,0-51.4-23-51.4-51.4V207h-154v-58.2h-63.2c-11.5-42.6-49.8-72.2-94.2-72.2C280.7,76.5,242.4,106.1,230.9,148.7 M233.4,155.4
	h2.6l0.6-2.6c9.9-41,46.2-69.7,88.5-69.7c42.2,0,78.6,28.6,88.5,69.7l0.6,2.6h61.7v58.2h154.2c1.7,29.3,25.2,52.9,54.6,54.5v192.7
	c-29.3,1.7-52.9,25.2-54.6,54.5H408.5l-0.9,1.9c-14.9,31.9-47.3,52.5-82.5,52.5c-35.2,0-67.5-20.6-82.5-52.5l-0.9-1.9H20.1
	c-1.7-29.3-25.2-52.9-54.5-54.5V268.2c29.3-1.7,52.9-25.2,54.5-54.5h154.2v-58.2H233.4z"/>
<path d="M299.7,174.6v46.4h-52.3v58.1H70.9l-1,1.5c-9.8,14.9-22.3,27.5-37.3,37.3l-1.5,1v91.1l1.5,1c14.9,9.8,27.5,22.3,37.3,37.3
	l1,1.5h228.8v29.4c0,14,11.4,25.4,25.4,25.4c14,0,25.4-11.4,25.4-25.4v-29.4h228.8l1-1.5c9.8-15,22.3-27.5,37.3-37.3l1.5-1V319
	l-1.5-1c-14.9-9.8-27.5-22.3-37.3-37.3l-1-1.5H402.9v-58.1h-52.3v-46.4c0-14-11.4-25.4-25.4-25.4
	C311.1,149.2,299.7,160.6,299.7,174.6 M303.1,227.7h3.3v-53.1c0-10.3,8.4-18.7,18.7-18.7c10.3,0,18.7,8.4,18.7,18.7v53.1h52.3v58.1
	h179.6c9.8,14.5,22.1,26.8,36.7,36.6v84c-14.5,9.8-26.9,22.1-36.7,36.7H343.9v36c0,10.3-8.4,18.7-18.7,18.7
	c-10.3,0-18.7-8.4-18.7-18.7v-36H74.5c-9.8-14.5-22.1-26.9-36.7-36.7v-84c14.5-9.8,26.8-22.1,36.6-36.6h179.6v-58.1H303.1z"/>
<polygon class="st0" points="247.4,279.2 247.4,221.1 250.1,221.1 174.4,156 174.4,213.6 147.8,213.6 224.1,279.2 "/>
<polygon class="st0" points="422.5,449.9 498.7,515.4 592.6,515.4 516.4,449.9 "/>
<path class="st0" d="M684.7,460.9v-30.6L619.1,374v36.1l-1.5,1c-9.1,6-17.4,13-24.7,21l53.7,46.1
	C656.4,468.2,669.8,461.7,684.7,460.9"/>
<path class="st0" d="M20.1,515.4h0.5l-0.5-0.5C20.1,515.1,20.1,515.3,20.1,515.4"/>
<path class="st0" d="M684.7,268.2c-29.4-1.7-52.9-25.2-54.6-54.5h-98.3l152.8,131.8V268.2z"/>
<path class="st0" d="M350.6,479.2c0,14-11.4,25.4-25.4,25.4s-25.4-11.4-25.4-25.4v-29.4h-68.2L361.9,562c19-8.4,34.9-23.2,44.6-42.3
	l-55.9-48.1V479.2z"/>
<path class="st0" d="M71,449.9l-1-1.5c-9.8-14.9-22.3-27.5-37.3-37.3l-1.5-1v-49.3l-65.6-56.5v80.5l151.9,130.7h93.2l-76.1-65.5H71z
	"/>
<path class="st0" d="M69.9,280.7l1-1.5h56.4l-76.1-65.6h-31c-0.9,15.3-7.7,28.9-18.1,38.8l53.7,46.2C61,293.1,65.7,287.2,69.9,280.7
	"/>
<path class="st1" d="M531.9,213.6h-55.9v-58.2h-61.7l-0.6-2.6c-9.9-41-46.2-69.7-88.5-69.7c-12.7,0-24.9,2.6-36,7.4l219.7,188.6
	h70.6l1,1.5c9.8,14.9,22.3,27.5,37.3,37.3l1.5,1v55l65.6,56.3v-84.9L531.9,213.6z"/>
<polygon class="st1" points="224.1,279.2 147.8,213.6 51.2,213.6 127.3,279.2 "/>
<path class="st1" d="M350.6,449.9v21.7l55.9,48.1c0.4-0.8,0.8-1.6,1.2-2.4l0.9-1.9h90.1l-76.2-65.5H350.6z"/>
<path class="st1" d="M134.6,449.9l76.1,65.5h31.1l0.9,1.9c14.9,31.9,47.3,52.5,82.5,52.5c12.9,0,25.4-2.8,36.8-7.8L231.6,449.9
	H134.6z"/>
<path class="st1" d="M31.2,319l1.5-1c8.5-5.6,16.2-12,23.1-19.3L2,252.4c-9.6,9.1-22.4,14.9-36.4,15.7v36.1l65.6,56.5V319z"/>
<path class="st1" d="M-34.4,460.9c29.2,1.7,52.6,25,54.5,54.1l0.5,0.5h96.9L-34.4,384.8V460.9z"/>
<path class="st1" d="M299.7,221.1v-41.1l-55.4-47.6c-3.3,6.4-5.9,13.3-7.6,20.6l-0.6,2.6h-2.6h-59.1v0.6l75.7,65.1H299.7z"/>
<path class="st0" d="M289.1,90.6c-19.2,8.2-35.1,22.9-44.8,41.7l55.4,47.6v-5.3c0-14,11.4-25.4,25.4-25.4c14,0,25.4,11.4,25.4,25.4
	v46.4h52.3v58.1h105.9L289.1,90.6z"/>
<path class="st1" d="M580.3,448.4l-1,1.5h-63l76.3,65.5h37.5c0.8-14.5,7-27.5,16.5-37.2L593,432.1
	C588.4,437.1,584.1,442.6,580.3,448.4"/>
<polygon points="262.6,241.8 293.7,241.8 293.7,250.3 283.7,250.3 283.7,285.9 272.5,285.9 272.5,250.3 262.6,250.3 "/>
<rect x="290.3" y="275.1" width="10.8" height="10.8"/>
<path d="M337.3,286.6h-4.6l-2.2-4.1c-2.5,2.9-6.3,4.3-9.7,4.3c-11.5,0-16.2-9-16.2-21.8c0-11.7,3.6-24,17.2-24
	c11,0,15.9,6.8,15.9,16.6h-10.8c-0.3-5.2-0.7-8.4-4.8-8.4c-4.7,0-5.4,6.6-5.4,14.8c0,9,0.4,14.7,5.6,14.7c3.8,0,5.4-4.4,5.4-7.2
	h-5.6V264h15.2V286.6z"/>
<rect x="342.4" y="275.1" width="10.8" height="10.8"/>
<rect x="359.2" y="241.8" width="11.2" height="44.1"/>
<rect x="376.3" y="275.1" width="10.8" height="10.8"/>
<polygon points="74.6,313.8 139.3,313.8 139.3,334.6 101.7,334.6 101.7,356.3 128.5,356.3 128.5,377.2 101.7,377.2 101.7,421.2 
	74.6,421.2 "/>
<path d="M174.3,333.7h4.5c9.1,0,17.7,0.9,17.7,12.1c0,8.6-6.6,11.8-16.9,11.8h-5.3V333.7z M147.2,421.2h27.2v-46.5h9.1l13.4,46.5
	h26.9l-18-52.2c10.6-3.9,18-13.4,18-24.8c0-21.1-15.7-30.5-36.1-30.5h-40.4V421.2z"/>
<path d="M233,345.5h24.4v75.8H233V345.5z M233,313.8h24.4v21.7H233V313.8z"/>
<path d="M297.5,332.8h2.3c18,0,19.8,19.6,19.8,32c0,14.2,0,37.4-19,37.4h-3V332.8z M270.3,421.2H303c32.9,0,45.7-24.7,45.7-55.4
	c0-31.5-15.7-52.1-49-52.1h-29.4V421.2z"/>
<path d="M388.8,336.7h0.3l7.8,43.8h-17.4L388.8,336.7z M348.6,421.2h22.5l4.7-21.7h24.9l4.2,21.7h27.5l-22.9-107.4h-35.6
	L348.6,421.2z"/>
<polygon points="450.9,379.4 424.1,313.8 452.5,313.8 466.6,356 483.7,313.8 507.8,313.8 478.1,377.9 478.1,421.2 450.9,421.2 "/>
<path d="M527.8,387.1c3.9,9.1,8.2,15.4,18.6,15.4c6.2,0,11.2-3.9,11.2-9.1c0-21.9-47.7-9.8-47.7-51.3c0-16.1,16.1-30.5,34.7-30.5
	c18.1,0,31.7,10.3,36.4,23.7l-21.6,9.1c-2.9-6.3-6.9-11.9-14.8-11.9c-4.7,0-9.4,2.9-9.4,9.1c0,15.2,48.6,11.8,48.6,45.4
	c0,22-18.1,36.4-39.2,36.4c-18.3,0-32.9-9.7-39.2-27.2L527.8,387.1z"/>
<polygon points="514.7,295.5 525,295.5 525,304.5 519.1,315.3 513.7,315.3 518.4,305.8 514.7,305.8 "/>
<path d="M667.8,486.5c5.1,0,9.3,4.2,9.3,9.3c0,5.1-4.2,9.3-9.3,9.3c-5.1,0-9.3-4.2-9.3-9.3C658.5,490.7,662.7,486.5,667.8,486.5
	 M674.2,495.8c0-4.2-2.6-6.9-6.4-6.9c-3.8,0-6.4,2.6-6.4,6.9c0,4.2,2.6,6.9,6.4,6.9C671.5,502.7,674.2,500,674.2,495.8 M664,490.9
	h3.7c2.6,0,4.2,0.7,4.2,3c0,1.9-1.1,2.6-2.7,2.6l2.6,4.3h-2.4l-2.3-4.2h-0.9v4.2H664V490.9z M666.3,495h1.9c0.9,0,1.3-0.3,1.3-1.3
	c0-1-0.5-1.1-1.3-1.1h-1.9V495z"/>
</svg>
